<svg width="24" height="24" viewBox="0 0 24 24" fill="none" xmlns="http://www.w3.org/2000/svg">
<rect width="24" height="24" fill="#F5F5F5"/>
<path d="M10.244 12.5279C8.98834 12.5279 7.9642 11.5041 7.9642 10.2489C7.9642 8.99379 8.98834 7.97003 10.244 7.97003C11.4996 7.97003 12.5237 8.99379 12.5237 10.2489C12.5237 11.5041 11.4996 12.5279 10.244 12.5279ZM10.244 9.02184C9.57056 9.02184 9.0164 9.57579 9.0164 10.2489C9.0164 10.9221 9.57056 11.476 10.244 11.476C10.9174 11.476 11.4715 10.9221 11.4715 10.2489C11.4715 9.57579 10.9174 9.02184 10.244 9.02184Z" fill="#496FFE"/>
<path opacity="0.2" d="M17.0245 0H6.97549C2.6053 0 0 2.6053 0 6.97549V17.0245C0 21.3947 2.6053 24 6.97549 24H17.0245C21.3947 24 24 21.3947 24 17.0245V6.97549C24 2.6053 21.3947 0 17.0245 0Z" fill="#496FFE"/>
<path d="M12.0467 19C11.0576 19 10.0616 18.6214 9.31099 17.8711L6.13334 14.6946C5.36173 13.9233 4.95488 12.8575 5.00398 11.7706L5.17233 8.25756C5.24949 6.58169 6.57527 5.25641 8.25879 5.17227L11.7661 5.00398C12.8604 4.95489 13.9196 5.36159 14.6912 6.13292L17.8689 9.30937C19.377 10.817 19.377 13.2782 17.8689 14.7858L14.7894 17.8641C14.0319 18.6214 13.0428 19 12.0467 19ZM6.8769 13.9443L10.0545 17.1208C11.1558 18.2217 12.9446 18.2217 14.0459 17.1208L17.1253 14.0425C18.2266 12.9416 18.2266 11.1535 17.1253 10.0526L13.9407 6.8832C13.3795 6.32224 12.6149 6.02774 11.8082 6.0628L8.30087 6.23108C7.1645 6.28017 6.27364 7.1707 6.21752 8.30665L6.04917 11.8197C6.01409 12.605 6.31572 13.3834 6.8769 13.9443Z" fill="#496FFE"/>
<path d="M12.6991 16.0339C12.5658 16.0339 12.4325 15.9848 12.3273 15.8796C12.1239 15.6763 12.1239 15.3397 12.3273 15.1363L15.1332 12.3315C15.3366 12.1282 15.6733 12.1282 15.8767 12.3315C16.0802 12.5349 16.0802 12.8715 15.8767 13.0748L13.0709 15.8796C12.9656 15.9848 12.8324 16.0339 12.6991 16.0339Z" fill="#496FFE"/>
</svg>
