<svg width="24" height="24" viewBox="0 0 24 24" fill="none" xmlns="http://www.w3.org/2000/svg">
<path opacity="0.2" d="M17.0245 0H6.97549C2.6053 0 0 2.6053 0 6.97549V17.0245C0 21.3947 2.6053 24 6.97549 24H17.0245C21.3947 24 24 21.3947 24 17.0245V6.97549C24 2.6053 21.3947 0 17.0245 0Z" fill="#496FFE"/>
<path d="M13.3692 17.2192H10.9144C9.31051 17.2192 8.00978 15.8903 8.00978 14.2533C8.00978 13.8585 8.3423 13.5311 8.74328 13.5311C9.14425 13.5311 9.47677 13.8585 9.47677 14.2533C9.47677 15.0911 10.1222 15.7748 10.9144 15.7748H13.3692C14.0049 15.7748 14.533 15.2163 14.533 14.5422C14.533 13.7044 14.2298 13.5407 13.7311 13.3674L9.78973 12C9.02689 11.74 8 11.1814 8 9.45774C8 7.97477 9.18337 6.7807 10.6308 6.7807H13.0856C14.6895 6.7807 15.9902 8.10959 15.9902 9.74663C15.9902 10.1414 15.6577 10.4688 15.2567 10.4688C14.8557 10.4688 14.5232 10.1414 14.5232 9.74663C14.5232 8.90885 13.8778 8.22515 13.0856 8.22515H10.6308C9.99511 8.22515 9.46699 8.78366 9.46699 9.45774C9.46699 10.2955 9.77017 10.4592 10.2689 10.6326L14.2103 12C14.9731 12.26 16 12.8185 16 14.5422C15.9902 16.0155 14.8166 17.2192 13.3692 17.2192Z" fill="#496FFE"/>
<path d="M11.9999 18.5C11.5989 18.5 11.2664 18.1726 11.2664 17.7778V6.22222C11.2664 5.82741 11.5989 5.5 11.9999 5.5C12.4008 5.5 12.7334 5.82741 12.7334 6.22222V17.7778C12.7334 18.1726 12.4008 18.5 11.9999 18.5Z" fill="#496FFE"/>
</svg>
