<svg width="24" height="24" viewBox="0 0 24 24" fill="none" xmlns="http://www.w3.org/2000/svg">
<path opacity="0.2" d="M17.0245 0H6.97549C2.6053 0 0 2.6053 0 6.97549V17.0245C0 21.3947 2.6053 24 6.97549 24H17.0245C21.3947 24 24 21.3947 24 17.0245V6.97549C24 2.6053 21.3947 0 17.0245 0Z" fill="#496FFE"/>
<path d="M12 16.2323C10.4763 16.2323 9.23254 14.9884 9.23254 13.4645C9.23254 13.1975 9.45394 12.9761 9.72092 12.9761C9.98789 12.9761 10.2093 13.1975 10.2093 13.4645C10.2093 14.4544 11.0102 15.2554 12 15.2554C12.9898 15.2554 13.7907 14.4544 13.7907 13.4645C13.7907 13.1975 14.0121 12.9761 14.2791 12.9761C14.546 12.9761 14.7674 13.1975 14.7674 13.4645C14.7674 14.9884 13.5237 16.2323 12 16.2323Z" fill="#496FFE"/>
<path d="M7.5656 8.33923C7.44188 8.33923 7.31165 8.28713 7.22049 8.19595C7.03165 8.00709 7.03165 7.6945 7.22049 7.50564L9.58421 5.14164C9.77304 4.95279 10.0856 4.95279 10.2744 5.14164C10.4633 5.3305 10.4633 5.6431 10.2744 5.83196L7.91072 8.19595C7.81304 8.28713 7.68932 8.33923 7.5656 8.33923Z" fill="#496FFE"/>
<path d="M16.4344 8.33923C16.3107 8.33923 16.1869 8.29364 16.0893 8.19595L13.7256 5.83196C13.5367 5.6431 13.5367 5.3305 13.7256 5.14164C13.9144 4.95279 14.2269 4.95279 14.4158 5.14164L16.7795 7.50564C16.9683 7.6945 16.9683 8.00709 16.7795 8.19595C16.6883 8.28713 16.5581 8.33923 16.4344 8.33923Z" fill="#496FFE"/>
<path d="M17.346 11.0874C17.3005 11.0874 17.2549 11.0874 17.2093 11.0874H17.0595H6.7907C6.33488 11.0939 5.81395 11.0939 5.43628 10.7162C5.13674 10.4232 5 9.9673 5 9.29652C5 7.50562 6.30884 7.50562 6.93395 7.50562H17.066C17.6912 7.50562 19 7.50562 19 9.29652C19 9.97381 18.8633 10.4232 18.5637 10.7162C18.2251 11.0549 17.7693 11.0874 17.346 11.0874ZM6.93395 10.1106H17.2158C17.5088 10.1171 17.7823 10.1171 17.8735 10.0259C17.9191 9.98032 18.0167 9.82402 18.0167 9.29652C18.0167 8.56062 17.8344 8.48247 17.0595 8.48247H6.93395C6.15907 8.48247 5.97674 8.56062 5.97674 9.29652C5.97674 9.82402 6.08093 9.98032 6.12 10.0259C6.21116 10.1106 6.49116 10.1106 6.77767 10.1106H6.93395Z" fill="#496FFE"/>
<path d="M13.8819 19H9.95534C7.62418 19 7.10325 17.6129 6.90138 16.4081L5.98324 10.7749C5.93766 10.5079 6.11999 10.2604 6.38697 10.2148C6.64743 10.1692 6.90138 10.3516 6.94697 10.6186L7.86511 16.2453C8.05394 17.398 8.44464 18.0232 9.95534 18.0232H13.8819C15.5553 18.0232 15.7442 17.437 15.9591 16.3039L17.053 10.6056C17.1051 10.3385 17.3591 10.1627 17.626 10.2213C17.893 10.2734 18.0623 10.5274 18.0102 10.7944L16.9163 16.4928C16.6623 17.8148 16.2391 19 13.8819 19Z" fill="#496FFE"/>
</svg>
