<svg width="24" height="24" viewBox="0 0 24 24" fill="none" xmlns="http://www.w3.org/2000/svg">
<rect width="24" height="24" fill="#F5F5F5"/>
<path d="M8.26286 10.9954C7.01715 10.9954 6 9.98506 6 8.7477C6 7.51033 7.01715 6.5 8.26286 6.5C9.50857 6.5 10.5257 7.51033 10.5257 8.7477C10.5257 9.98506 9.50857 10.9954 8.26286 10.9954ZM8.26286 8.21415C7.96572 8.21415 7.71428 8.45256 7.71428 8.75906C7.71428 9.06556 7.95429 9.30393 8.26286 9.30393C8.57143 9.30393 8.81141 9.06556 8.81141 8.75906C8.81141 8.45256 8.56 8.21415 8.26286 8.21415Z" fill="#496FFE"/>
<path opacity="0.2" d="M17.0245 0H6.97549C2.6053 0 0 2.6053 0 6.97549V17.0245C0 21.3947 2.6053 24 6.97549 24H17.0245C21.3947 24 24 21.3947 24 17.0245V6.97549C24 2.6053 21.3947 0 17.0245 0Z" fill="#496FFE"/>
<path d="M7.79401 16.5692C7.57687 16.5692 7.35973 16.4897 7.1883 16.3194C6.85687 15.9902 6.85687 15.4453 7.1883 15.1161L14.674 7.68062C15.0054 7.35141 15.554 7.35141 15.8854 7.68062C16.2168 8.00983 16.2168 8.55472 15.8854 8.88392L8.39972 16.3194C8.22829 16.4897 8.01115 16.5692 7.79401 16.5692Z" fill="#496FFE"/>
<path d="M15.7371 17.5C14.4914 17.5 13.4743 16.4897 13.4743 15.2523C13.4743 14.0149 14.4914 13.0046 15.7371 13.0046C16.9828 13.0046 18 14.0149 18 15.2523C18 16.4897 16.9828 17.5 15.7371 17.5ZM15.7371 14.7188C15.44 14.7188 15.1886 14.9572 15.1886 15.2637C15.1886 15.5702 15.4286 15.8086 15.7371 15.8086C16.0457 15.8086 16.2857 15.5702 16.2857 15.2637C16.2857 14.9572 16.0457 14.7188 15.7371 14.7188Z" fill="#496FFE"/>
</svg>
